<svg xmlns="http://www.w3.org/2000/svg" viewBox="0 0 2080.21 637.19"><defs><style>.cls-1,.cls-3{fill:#e2902b;}.cls-2{fill:#1d1d1b;}.cls-3{stroke:#e2902b;stroke-miterlimit:10;stroke-width:2px;}</style></defs><title>Asset 1</title><g id="Layer_2" data-name="Layer 2"><g id="Capa_1" data-name="Capa 1"><path class="cls-1" d="M525.35,65.28A245.74,245.74,0,0,0,177.88,79.17C84.81,180,91,335.25,190.93,427.47L372,593.72,539.24,412.63C631.45,312.75,626.14,157.44,525.35,65.28Z"/><path class="cls-2" d="M254.72,340.58a20.36,20.36,0,0,0-40.73-.1,20.36,20.36,0,1,0,40.73.1Z"/><path class="cls-2" d="M486.82,249.54a37.57,37.57,0,0,0-2.45-12.3c-1.44-3.91-3.27-7.67-9-7.65q-79.55.24-159.1.06c-16.41,0-31.78,3.16-44.75,13.71-12.11,9.85-23.93,20.06-35.76,30.24-6.18,5.32-12.29,10.66-20,13.71-5.16,2-10.42,3.85-15.47,6.13-9.38,4.23-12.53,11.1-11.15,21.73-1.45,0-2.67.06-3.58.06-2.62,20.28,8,27.14,19.1,28.1,0-.18,0-.35,0-.52a29.66,29.66,0,0,1,18.79-27.58h.91c.44-.16.9-.28,1.35-.42l.07.08a29.71,29.71,0,0,1,38.33,28.3H427.94C426.2,433.11,337,494.57,252.24,494.57c-51.62,0-103.9-26.76-139.84-62.66-36.6-37.2-57.51-86.8-57.51-139,0-111,88.88-205.61,201.28-205.61,72.54,0,128.08,34.59,169.25,92.69l39.86-37.2C413,74.88,343.07,36.37,256.82,36.37,115,36.37,0,151.25,0,292.23,0,367.62,34.18,436,87.67,482.64l-.08,0,171,154.57,156.2-152.64-.15,0a225.35,225.35,0,0,0,21.2-21.34c39.17-45.36,49.72-92.71,51-148h0c0-.51.1-.91.1-1.3q0-5.36,0-10.71c0-.71,0-1.42,0-2.14C487,283.91,487,266.72,486.82,249.54ZM248,277.39c6.85-5.92,13.79-11.74,20.49-17.83,6.3-5.73,13.68-8.24,22-8.35,3.24,0,6.48,0,10.1,0-.19,2.92-.34,5.77-.56,8.6-.42,5.36-1,10.72-1.28,16.09a5.7,5.7,0,0,1-2.72,4.64,48.25,48.25,0,0,1-20.91,8.8,221.8,221.8,0,0,1-23.25,2.44c-6.62.39-13.28.08-19.92.08l-.24-.53Q239.84,284.37,248,277.39Zm-46.44,22.08c4.78-2,9.81-3.29,14.74-4.89l.32.7c-3.31,3-6.51,6.16-8,10.58a1.63,1.63,0,0,1-1,.92c-4.15,1-8.32,1.91-12.69,2.89C195.1,304.71,197.31,301.2,201.52,299.48Zm32.45,14,.39,0,.43,0ZM463.89,279.6c-3.54,2.86-6.51,6.4-9.86,9.51a5.16,5.16,0,0,1-.81.51H308.82l2.94-38.47H462.69c3.93,0,4.38.21,4.72,4.23.4,4.69.19,9.44.64,14.12A10.5,10.5,0,0,1,463.89,279.6Z"/><path class="cls-2" d="M944.18,613.6h-6V557.48L908.35,613.6H902l-29.71-56.12V613.6h-6V549.86H875l30.16,57.92,30.39-57.92h8.62Z"/><polygon class="cls-2" points="947.38 616.8 934.93 616.8 934.93 570.34 910.27 616.8 900.07 616.8 875.48 570.37 875.48 616.8 863.04 616.8 863.04 546.66 869.08 546.66 869.08 544.61 870.17 546.66 876.95 546.66 905.18 600.87 933.63 546.66 940.25 546.66 941.33 544.63 941.33 546.66 947.38 546.66 947.38 616.8"/><path class="cls-2" d="M1031.08,548.69a50.57,50.57,0,0,1,15.65,2.33,36.92,36.92,0,0,1,12.36,6.64,30.16,30.16,0,0,1,11,23.87,31.4,31.4,0,0,1-2.87,13.5,30.87,30.87,0,0,1-8.05,10.51,37.24,37.24,0,0,1-12.33,6.81,52.83,52.83,0,0,1-31.56,0,37.47,37.47,0,0,1-12.36-6.79,30.52,30.52,0,0,1-8.05-10.48A31.46,31.46,0,0,1,992,581.53,30.89,30.89,0,0,1,994.91,568a30.07,30.07,0,0,1,8.13-10.33A37.7,37.7,0,0,1,1015.4,551,50.48,50.48,0,0,1,1031.08,548.69Zm-.08,61.41a43.47,43.47,0,0,0,13.12-1.9,30,30,0,0,0,10.4-5.56,25.12,25.12,0,0,0,6.8-9,29.08,29.08,0,0,0,2.42-12.14,28.25,28.25,0,0,0-2.46-12.11,25,25,0,0,0-6.81-8.82,29.8,29.8,0,0,0-10.28-5.41,43.8,43.8,0,0,0-13-1.83,44.4,44.4,0,0,0-13.19,1.86,30.59,30.59,0,0,0-10.4,5.44,24.83,24.83,0,0,0-6.84,8.82,28,28,0,0,0-2.46,12.05,29,29,0,0,0,2.42,12.14,25.26,25.26,0,0,0,6.76,9,29.6,29.6,0,0,0,10.36,5.56A43.47,43.47,0,0,0,1031,610.11Z"/><path class="cls-2" d="M1031.08,618a52.75,52.75,0,0,1-16.82-2.58,40.73,40.73,0,0,1-13.4-7.37A33.78,33.78,0,0,1,992,596.45a34.81,34.81,0,0,1-3.18-14.92A34.22,34.22,0,0,1,992,566.58a33.43,33.43,0,0,1,9-11.42,41.13,41.13,0,0,1,13.4-7.17,57.31,57.31,0,0,1,33.31,0,40.16,40.16,0,0,1,13.42,7.22,33.35,33.35,0,0,1,12.15,26.33,34.69,34.69,0,0,1-3.17,14.86,34.19,34.19,0,0,1-8.88,11.58,40.61,40.61,0,0,1-13.37,7.41A52.4,52.4,0,0,1,1031.08,618Zm.15-61.41a41.34,41.34,0,0,0-12.25,1.72,27.46,27.46,0,0,0-9.32,4.87,21.77,21.77,0,0,0-6,7.7,25,25,0,0,0-2.15,10.69,26,26,0,0,0,2.13,10.81,22.28,22.28,0,0,0,5.92,7.87,26.53,26.53,0,0,0,9.24,4.94,43.35,43.35,0,0,0,24.32,0,27,27,0,0,0,9.31-5,22.12,22.12,0,0,0,5.94-7.86,26,26,0,0,0,2.13-10.81,25.21,25.21,0,0,0-2.15-10.75,22,22,0,0,0-5.95-7.71,26.75,26.75,0,0,0-9.19-4.82A40.83,40.83,0,0,0,1031.24,556.55Z"/><path class="cls-2" d="M1182.33,613.6h-7.94l-50.5-58.21V613.6h-6V549.86h8.31L1176.28,608V549.86h6Z"/><polygon class="cls-2" points="1185.53 616.8 1172.93 616.8 1127.09 563.95 1127.09 616.8 1114.64 616.8 1114.64 546.66 1127.62 546.66 1173.08 599.35 1173.08 546.66 1185.53 546.66 1185.53 616.8"/><path class="cls-2" d="M1291.24,554.52h-29V613.6h-6V554.52h-28.65v-4.66h63.66Z"/><polygon class="cls-2" points="1265.48 616.8 1253.03 616.8 1253.03 557.72 1224.38 557.72 1224.38 546.66 1294.43 546.66 1294.43 557.72 1265.48 557.72 1265.48 616.8"/><path class="cls-2" d="M1397,613.6h-59.8V549.86h57.76v4.66h-51.71v23.57h48.46v4.66h-48.46v26.2H1397Z"/><polygon class="cls-2" points="1400.16 616.8 1333.96 616.8 1333.96 546.66 1398.12 546.66 1398.12 557.72 1346.41 557.72 1346.41 574.89 1394.87 574.89 1394.87 585.95 1346.41 585.95 1346.41 605.75 1400.16 605.75 1400.16 616.8"/><path class="cls-2" d="M1511.09,549.86l-32.43,63.74h-7.79l-32.43-63.74h6.73l29.63,57.92,29.64-57.92Z"/><polygon class="cls-2" points="1480.62 616.8 1468.91 616.8 1433.23 546.66 1447.13 546.66 1474.8 600.76 1502.48 546.66 1516.31 546.66 1480.62 616.8"/><path class="cls-2" d="M1564.43,613.6h-6V549.86h6Z"/><rect class="cls-2" x="1555.19" y="546.66" width="12.45" height="70.14"/><path class="cls-2" d="M1686.19,581.23q0,32.37-41.8,32.37h-25V549.92h25q20.94,0,31.37,7.77T1686.19,581.23Zm-6.43,0a36,36,0,0,0-1.62-11.23,18.38,18.38,0,0,0-5.71-8.41,27.5,27.5,0,0,0-10.93-5.27,69.15,69.15,0,0,0-17.27-1.8h-18.82v54.43h18.82a66.79,66.79,0,0,0,17.2-1.86,27.15,27.15,0,0,0,10.93-5.44,19.31,19.31,0,0,0,5.74-8.7A37.89,37.89,0,0,0,1679.76,581.23Z"/><path class="cls-2" d="M1644.39,616.8h-28.22V546.72h28.22c14.6,0,25.8,2.83,33.28,8.41,7.78,5.79,11.72,14.57,11.72,26.11C1689.39,597.46,1681.58,616.8,1644.39,616.8Zm-15.78-11.06h15.62a63.94,63.94,0,0,0,16.36-1.75,24.14,24.14,0,0,0,9.66-4.77,16,16,0,0,0,4.81-7.28,34.88,34.88,0,0,0,1.51-10.72A32.92,32.92,0,0,0,1675.1,571a15.15,15.15,0,0,0-4.74-7,24.44,24.44,0,0,0-9.67-4.61,66.24,66.24,0,0,0-16.46-1.7h-15.62ZM1682.77,577q.19,2.07.19,4.27,0,1.94-.14,3.79.17-1.82.17-3.79A39,39,0,0,0,1682.77,577Z"/><path class="cls-2" d="M1795.1,613.6h-59.8V549.86h57.76v4.66h-51.71v23.57h48.46v4.66h-48.46v26.2h53.75Z"/><polygon class="cls-2" points="1798.3 616.8 1732.1 616.8 1732.1 546.66 1796.25 546.66 1796.25 557.72 1744.55 557.72 1744.55 574.89 1793.01 574.89 1793.01 585.95 1744.55 585.95 1744.55 605.75 1798.3 605.75 1798.3 616.8"/><path class="cls-2" d="M1879.59,548.69a50.56,50.56,0,0,1,15.65,2.33,36.92,36.92,0,0,1,12.36,6.64,30.17,30.17,0,0,1,11,23.87,31.39,31.39,0,0,1-2.87,13.5,30.87,30.87,0,0,1-8.05,10.51,37.23,37.23,0,0,1-12.33,6.81,52.83,52.83,0,0,1-31.56,0,37.47,37.47,0,0,1-12.36-6.79,30.52,30.52,0,0,1-8.05-10.48,31.47,31.47,0,0,1-2.87-13.56,30.89,30.89,0,0,1,2.91-13.56,30.07,30.07,0,0,1,8.13-10.33A37.69,37.69,0,0,1,1863.9,551,50.49,50.49,0,0,1,1879.59,548.69Zm-.08,61.41a43.48,43.48,0,0,0,13.12-1.9,30,30,0,0,0,10.4-5.56,25.12,25.12,0,0,0,6.8-9,29.08,29.08,0,0,0,2.42-12.14,28.25,28.25,0,0,0-2.46-12.11,25,25,0,0,0-6.81-8.82,29.81,29.81,0,0,0-10.28-5.41,43.81,43.81,0,0,0-13-1.83,44.4,44.4,0,0,0-13.19,1.86,30.6,30.6,0,0,0-10.4,5.44,24.83,24.83,0,0,0-6.84,8.82,28,28,0,0,0-2.46,12.05,29,29,0,0,0,2.42,12.14,25.26,25.26,0,0,0,6.76,9,29.59,29.59,0,0,0,10.36,5.56A43.47,43.47,0,0,0,1879.51,610.11Z"/><path class="cls-2" d="M1879.59,618a52.75,52.75,0,0,1-16.82-2.58,40.73,40.73,0,0,1-13.4-7.37,33.78,33.78,0,0,1-8.88-11.55,34.81,34.81,0,0,1-3.18-14.92,34.22,34.22,0,0,1,3.23-14.95,33.43,33.43,0,0,1,9-11.42,41.13,41.13,0,0,1,13.4-7.17,57.31,57.31,0,0,1,33.31,0,40.16,40.16,0,0,1,13.42,7.22,33.35,33.35,0,0,1,12.15,26.33,34.69,34.69,0,0,1-3.17,14.86,34.19,34.19,0,0,1-8.88,11.58,40.61,40.61,0,0,1-13.37,7.41A52.4,52.4,0,0,1,1879.59,618Zm.15-61.41a41.34,41.34,0,0,0-12.25,1.72,27.46,27.46,0,0,0-9.32,4.87,21.77,21.77,0,0,0-6,7.7,25,25,0,0,0-2.15,10.69,26,26,0,0,0,2.13,10.81,22.28,22.28,0,0,0,5.92,7.87,26.53,26.53,0,0,0,9.24,4.94,43.35,43.35,0,0,0,24.32,0,27,27,0,0,0,9.31-5,22.12,22.12,0,0,0,5.94-7.86,26,26,0,0,0,2.13-10.81,25.21,25.21,0,0,0-2.15-10.75,22,22,0,0,0-5.95-7.71,26.75,26.75,0,0,0-9.19-4.82A40.83,40.83,0,0,0,1879.74,556.55Z"/><path class="cls-3" d="M925.57,346.19q0,63.38-25.31,89.26T815,461.34q-44.69,0-71.37-18.81t-27.13-50l53.13-.23a26.14,26.14,0,0,0,13,21.2q11.85,7.29,33.29,7.3,31.69,0,45.6-13.91t14.14-46.51l.46-28.73q-13.23,18.7-30.89,27.82t-40.47,9.12q-45.83,0-72.16-31.35t-26.33-85.84q0-51.75,26.9-83.56T803.36,136q26.45,0,45.26,11.06a64.83,64.83,0,0,1,27.47,31.81V143.49h49.48Zm-48.11-95.31q0-33.52-15.62-52.21T818.18,180q-28,0-44.12,19.27T758,252.71q0,34.43,15.5,53.13t43.78,18.7q26.68,0,43.44-20.29T877.47,250.89Z"/><path class="cls-3" d="M978,251.8a112.83,112.83,0,0,1,9-44.8,114.82,114.82,0,0,1,25.88-37.51,116.43,116.43,0,0,1,38.31-24.85,124.63,124.63,0,0,1,91.32,0,116.61,116.61,0,0,1,38.65,25.54,114.62,114.62,0,0,1,26,37.62,111.63,111.63,0,0,1,8.89,44,115.23,115.23,0,0,1-8.78,44.92,109.85,109.85,0,0,1-25.65,37.17,123.56,123.56,0,0,1-39.45,25.88,120.35,120.35,0,0,1-45.6,8.78,119.15,119.15,0,0,1-45.15-8.78,120.07,120.07,0,0,1-64.53-63.27A113.29,113.29,0,0,1,978,251.8Zm185.83.46q0-30.1-19.38-51T1097,180.43q-27.82,0-47.31,20.86t-19.49,51q0,30.1,19.49,51T1097,324.08q27.81,0,47.31-20.86T1163.84,252.25Z"/><path class="cls-3" d="M1570.83,205.06a77.53,77.53,0,0,0-26.56-19.15,81,81,0,0,0-32.72-6.61q-30.33,0-48.57,19.61t-18.24,52q0,33.75,18.35,53t50.73,19.27q18,0,32.15-6.73A69.43,69.43,0,0,0,1570.83,296v57a115.73,115.73,0,0,1-29.3,11.63,137.45,137.45,0,0,1-33.17,3.88q-50.85,0-82.88-32.38t-32-83.91q0-52.21,33.17-84.25t86.76-32a136.42,136.42,0,0,1,31,3.31,102.09,102.09,0,0,1,26.45,10.15Z"/><path class="cls-3" d="M1617.12,50a29.42,29.42,0,0,1,9.23-21.66,30.24,30.24,0,0,1,22-9.12q13.22,0,22,8.78t8.78,22a30.4,30.4,0,0,1-8.89,22.23,29.54,29.54,0,0,1-21.89,9,30,30,0,0,1-22-9.23A30,30,0,0,1,1617.12,50Zm6.61,309.63V143.49h49.48V359.64Z"/><path class="cls-3" d="M1755.52,359.64V186.82h-37.85V143.49h37.85V61.64H1805v81.85h37.85v43.32H1805V359.64Z"/><path class="cls-3" d="M1922.65,461.34H1871.8l59.28-120.39-79.35-197.45h54.72l39.67,112q3.42,10.26,6,20.86t4.22,21.55q3-11.4,14.14-36.25l1.14-2.74L2025,143.49h53.58Z"/></g></g></svg>